<?xml version="1.0" encoding="UTF-8" standalone="no"?>
<!-- Created with Sodipodi ("http://www.sodipodi.com/") -->
<svg
   xmlns:dc="http://purl.org/dc/elements/1.1/"
   xmlns:cc="http://web.resource.org/cc/"
   xmlns:rdf="http://www.w3.org/1999/02/22-rdf-syntax-ns#"
   xmlns:svg="http://www.w3.org/2000/svg"
   xmlns="http://www.w3.org/2000/svg"
   xmlns:xlink="http://www.w3.org/1999/xlink"
   xmlns:sodipodi="http://sodipodi.sourceforge.net/DTD/sodipodi-0.dtd"
   xmlns:inkscape="http://www.inkscape.org/namespaces/inkscape"
   id="svg602"
   sodipodi:version="0.32"
   width="491.72189"
   height="590.11865"
   xml:space="preserve"
   sodipodi:docbase="/Users/johnolsen/Desktop"
   sodipodi:docname="ecuabron_AlienGrin.svg"
   inkscape:version="0.45.1"
   inkscape:output_extension="org.inkscape.output.svg.inkscape"
   version="1.0"><metadata
     id="metadata2238"><rdf:RDF><cc:Work
         rdf:about=""><dc:format>image/svg+xml</dc:format><dc:type
           rdf:resource="http://purl.org/dc/dcmitype/StillImage" /></cc:Work></rdf:RDF></metadata><defs
     id="defs604"><linearGradient
       inkscape:collect="always"
       id="linearGradient2278"><stop
         style="stop-color:#d7ffda;stop-opacity:1;"
         offset="0"
         id="stop2280" /><stop
         style="stop-color:#d7ffda;stop-opacity:0;"
         offset="1"
         id="stop2282" /></linearGradient><linearGradient
       inkscape:collect="always"
       id="linearGradient2270"><stop
         style="stop-color:#589c00;stop-opacity:1;"
         offset="0"
         id="stop2272" /><stop
         style="stop-color:#589c00;stop-opacity:0;"
         offset="1"
         id="stop2274" /></linearGradient><linearGradient
       inkscape:collect="always"
       id="linearGradient2262"><stop
         style="stop-color:#589c00;stop-opacity:1;"
         offset="0"
         id="stop2264" /><stop
         style="stop-color:#589c00;stop-opacity:0;"
         offset="1"
         id="stop2266" /></linearGradient><linearGradient
       inkscape:collect="always"
       id="linearGradient2254"><stop
         style="stop-color:#d7ffda;stop-opacity:1;"
         offset="0"
         id="stop2256" /><stop
         style="stop-color:#d7ffda;stop-opacity:0;"
         offset="1"
         id="stop2258" /></linearGradient><linearGradient
       inkscape:collect="always"
       id="linearGradient2248"><stop
         style="stop-color:#d7ffda;stop-opacity:1;"
         offset="0"
         id="stop2250" /><stop
         style="stop-color:#d7ffda;stop-opacity:0;"
         offset="1"
         id="stop2252" /></linearGradient><linearGradient
       id="linearGradient610"><stop
         style="stop-color:#928f9e;stop-opacity:1;"
         offset="0"
         id="stop611" /><stop
         style="stop-color:#000000;stop-opacity:1;"
         offset="1"
         id="stop612" /></linearGradient><linearGradient
       xlink:href="#linearGradient610"
       id="linearGradient613"
       x1="-0.035398319"
       y1="0.4062497"
       x2="1.0000006"
       y2="0.57031208" /><radialGradient
       xlink:href="#linearGradient610"
       id="radialGradient614"
       cx="0.45794395"
       cy="0.11718748"
       r="0.13667874"
       fx="0.45794395"
       fy="0.11718748" /><radialGradient
       xlink:href="#linearGradient610"
       id="radialGradient640" /><radialGradient
       xlink:href="#linearGradient610"
       id="radialGradient641"
       cx="-0.32060242"
       cy="0.76787847"
       r="0.053902149"
       fx="-0.32060242"
       fy="0.76787847" /><radialGradient
       xlink:href="#linearGradient610"
       id="radialGradient642"
       cx="1.068959"
       cy="0.75491965"
       r="0.04933656"
       fx="1.068959"
       fy="0.75491965"
       gradientTransform="scale(1.017155,0.983135)" /><linearGradient
       inkscape:collect="always"
       xlink:href="#linearGradient2248"
       id="linearGradient2246"
       x1="240.31097"
       y1="166.8465"
       x2="302.40817"
       y2="188.09897"
       gradientUnits="userSpaceOnUse"
       gradientTransform="translate(-130.06711,-101.06035)" /><linearGradient
       inkscape:collect="always"
       xlink:href="#linearGradient2254"
       id="linearGradient2260"
       x1="191.84491"
       y1="251.15729"
       x2="213.55367"
       y2="283.97287"
       gradientUnits="userSpaceOnUse"
       gradientTransform="translate(-130.06711,-101.06035)" /><linearGradient
       inkscape:collect="always"
       xlink:href="#linearGradient2262"
       id="linearGradient2268"
       x1="620.47498"
       y1="265.47632"
       x2="560.25006"
       y2="308.2677"
       gradientUnits="userSpaceOnUse"
       gradientTransform="translate(-130.06711,-101.06035)" /><linearGradient
       inkscape:collect="always"
       xlink:href="#linearGradient2270"
       id="linearGradient2276"
       x1="641.87067"
       y1="440.604"
       x2="589.57007"
       y2="452.49048"
       gradientUnits="userSpaceOnUse"
       gradientTransform="translate(-130.06711,-101.06035)" /><linearGradient
       inkscape:collect="always"
       xlink:href="#linearGradient2278"
       id="linearGradient2284"
       x1="136.29846"
       y1="421.5856"
       x2="173.5428"
       y2="462.89703"
       gradientUnits="userSpaceOnUse"
       gradientTransform="translate(-130.06711,-101.06035)" /></defs><sodipodi:namedview
     id="base"
     showguides="true"
     inkscape:guide-bbox="true"
     inkscape:zoom="1.3980239"
     inkscape:cx="245.86095"
     inkscape:cy="295.05932"
     inkscape:window-width="1234"
     inkscape:window-height="1012"
     inkscape:window-x="0"
     inkscape:window-y="22"
     inkscape:current-layer="svg602" /><path
     style="font-size:12px;fill:#aae900;fill-opacity:1;fill-rule:evenodd;stroke:none;stroke-width:1"
     d="M 297.18149,251.34855 C 304.35249,247.20145 313.03029,244.95175 318.69459,238.90715 C 342.86609,213.11275 358.79659,136.57045 359.50189,102.72635 C 360.63749,48.239146 312.86529,2.9444463 260.14879,0.41684633 C 185.36649,-3.1687137 130.09679,15.318746 115.37319,97.299146 C 106.89819,144.48735 158.29679,163.54165 185.47749,191.27115 C 206.94679,213.17385 226.54979,271.63515 175.36559,268.51485 C 138.94719,266.29475 137.69189,219.44285 130.67519,193.90445 C 118.72529,150.41125 78.352386,137.68635 51.184986,177.20115 C 33.136986,203.45165 41.750386,275.86555 75.782786,286.67775 C 111.55629,298.04315 210.17059,261.52145 199.04819,332.42535 C 193.46739,368.00195 152.89869,378.58555 124.85859,359.47725 C 93.854686,338.34925 52.604586,296.06805 15.204686,333.63435 C -15.101814,364.07575 4.1951857,420.65335 35.511586,442.17915 C 62.331086,460.61405 107.59869,454.67665 134.82329,440.36785 C 152.82509,430.90635 198.76919,393.83665 217.28409,407.92025 C 234.81579,421.25605 208.35269,467.33275 197.73809,477.42805 C 167.42169,506.26135 97.441986,471.09275 109.69909,538.08845 C 119.86639,593.66175 200.30439,604.69435 227.68069,556.53955 C 239.96669,534.92845 250.14739,468.03075 276.91179,465.69655 C 312.33699,462.60725 290.26229,534.18435 290.82559,550.93825 C 291.85769,581.63475 321.16129,599.94685 348.25169,584.56845 C 391.24219,560.16395 386.68619,524.02505 364.12469,488.07675 C 352.24189,469.14325 305.74749,394.04795 355.62149,390.32125 C 393.25369,387.50925 399.07589,457.10725 450.85279,427.25255 C 475.34229,413.13185 502.77309,360.20055 486.39289,333.52455 C 466.31409,300.82505 395.21189,344.46515 372.41309,353.33545 C 329.20229,370.14735 316.58519,353.68745 322.95509,310.01745 C 329.37049,266.03525 396.77359,275.42625 428.97829,266.12975 C 472.42399,253.58815 523.02889,204.86295 466.87459,170.83885 C 437.04379,152.76435 398.16509,166.27955 378.61239,191.69705 C 353.55369,224.27195 339.66199,272.32855 291.30309,276.92195 C 276.77619,278.30175 280.21749,248.22015 293.02909,253.20845 C 293.17569,253.26555 292.09289,253.41255 297.18149,251.34855 z "
     id="path605" /><path
     style="font-size:12px;fill:#000000;fill-opacity:1;fill-rule:evenodd;stroke:#000000;stroke-width:1.11249995;stroke-linejoin:round;stroke-dasharray:none"
     d="M 247.81419,117.42035 C 228.0318,100.56805 226.15239,102.81635 219.62909,103.81125 C 190.94299,108.18615 171.91849,133.67385 201.95129,162.96605 C 214.04159,174.75845 233.85679,174.59955 242.60459,163.47335 C 254.01449,148.96135 249.67299,148.44245 249.76789,130.87625 C 249.78269,128.14045 249.37529,125.00445 249.45509,122.75605 C 249.42839,123.50885 249.63879,121.28495 247.81419,117.42035 z "
     id="path635"
     sodipodi:nodetypes="csssssc" /><path
     style="font-size:12px;fill:#000000;fill-opacity:1;fill-rule:evenodd;stroke:#000000;stroke-width:1.11249995;stroke-linejoin:round;stroke-dasharray:none"
     d="M 284.32249,120.06085 C 301.99579,105.10755 326.22059,98.274646 333.62449,125.46975 C 338.35649,142.85065 321.83609,170.85575 305.31899,168.30695 C 290.26259,165.98375 267.40869,150.53435 277.65059,128.80125 C 279.42999,125.02515 280.44959,123.26995 284.32249,120.06085 z "
     id="path636" /><path
     style="font-size:12px;fill:#000000;fill-opacity:1;fill-rule:evenodd;stroke:#000000;stroke-width:0.93247998"
     d="M 269.14259,156.77885 C 261.85229,163.22065 247.70939,185.94765 256.60419,192.33295 C 260.28439,194.97485 266.52779,179.93025 268.26809,177.90925 C 268.57249,177.55575 271.44919,184.13605 273.81569,193.54205 C 275.19419,199.02105 285.06439,190.59155 281.75659,182.58675 C 279.75819,177.75055 272.48299,160.20015 269.14259,156.77885 z "
     id="path637" /><path
     style="font-size:12px;fill:url(#linearGradient2246);fill-opacity:1;fill-rule:evenodd;stroke:none;stroke-width:1"
     d="M 157.85399,40.232446 C 150.50909,58.349946 146.47409,63.363546 145.54009,84.403346 C 145.11969,93.872646 150.71469,136.86665 133.67299,133.69255 C 126.71789,132.39715 126.54519,95.400046 127.26419,89.777846 C 128.83129,77.524746 141.48029,39.356546 157.85399,40.232446 z "
     id="path643" /><path
     style="fill:url(#linearGradient2260);fill-opacity:1;fill-rule:evenodd;stroke:none;stroke-width:1pt;stroke-linecap:butt;stroke-linejoin:miter;stroke-opacity:1"
     d="M 95.559286,175.57695 C 93.858686,172.17585 81.291986,169.90345 77.857286,171.81955 C 73.434486,174.28695 58.542986,191.96125 56.131686,191.98475 C 55.985286,191.98625 55.080986,185.26965 58.311186,178.10565 C 62.945786,167.82715 80.570986,152.98015 91.171286,164.56745 C 96.234986,170.10265 95.357086,171.04335 95.559286,175.57695 z "
     id="path644" /><path
     style="font-size:12px;fill:url(#linearGradient2284);fill-opacity:1;fill-rule:evenodd;stroke:none;stroke-width:0.90890199"
     d="M 47.994386,337.94465 C 43.392686,330.48015 31.811386,326.95275 23.679886,334.44275 C 17.420486,340.20825 6.2352857,357.47495 17.111286,361.82465 C 18.055486,362.20225 22.104586,353.59265 25.461986,349.74465 C 29.051786,345.63035 41.298786,341.45275 47.994386,337.94465 z "
     id="path647" /><path
     style="fill:url(#linearGradient2268);fill-opacity:1;fill-rule:evenodd;stroke:none;stroke-width:1pt;stroke-linecap:butt;stroke-linejoin:miter;stroke-opacity:1"
     d="M 410.83943,188.00407 C 417.29989,180.07581 434.12206,176.07755 446.23457,182.96982 C 455.85104,188.44179 459.67142,193.32775 465.25768,201.10188 C 468.32802,205.37481 478.82998,200.47149 477.13043,193.01971 C 474.70213,182.3729 463.1786,175.17856 451.51962,169.35463 C 441.43662,164.31803 415.66075,173.62645 412.18406,180.32065 C 411.28998,182.04191 405.6267,188.89333 406.85703,190.61006 C 407.35658,191.3072 409.24553,189.86459 410.83943,188.00407 z "
     id="path648" /><path
     style="fill:url(#linearGradient2276);fill-opacity:1;fill-rule:evenodd;stroke:none;stroke-width:1pt;stroke-linecap:butt;stroke-linejoin:miter;stroke-opacity:1"
     d="M 454.41259,330.29215 C 464.52139,325.23775 481.55339,333.57895 484.27199,344.13645 C 485.62519,349.39135 490.85529,367.59785 477.42499,358.68005 C 476.00859,357.73965 474.16379,345.09975 464.89029,339.40635 C 460.63179,336.79185 462.89919,333.55705 455.85499,332.39325 C 454.82429,332.22295 455.30479,331.02575 454.41259,330.29215 z "
     id="path650" /><path
     style="fill:#2b0000;fill-rule:evenodd;stroke:#000000;stroke-width:0.61914086px;stroke-linecap:butt;stroke-linejoin:miter;stroke-opacity:1"
     d="M 247.4548,226.11631 C 249.091,223.63538 243.95203,212.1979 249.60175,218.49217 C 257.74463,227.56404 250.66681,204.0129 257.65281,217.14673 C 258.2062,218.18711 258.72629,219.23964 259.26302,220.28608 C 259.5001,220.74829 265.73201,207.82271 267.31408,213.11042 C 272.16861,229.33553 266.79767,202.37523 278.04883,218.04369 C 278.70076,218.95157 281.51442,207.8172 283.4162,218.94065 C 283.64202,220.26143 289.32031,209.3893 289.32031,217.59521 C 289.32031,220.47077 283.655,228.00905 284.48968,225.21935 C 286.91371,217.11761 282.53802,223.83287 281.26925,227.01327 C 280.15804,229.79874 285.47899,218.09643 276.97536,223.42544 C 276.05888,223.99977 275.18623,224.62138 274.29167,225.21935 C 274.06132,225.37333 274.15399,220.28999 270.53451,224.3224 C 270.14746,224.7536 269.81886,223.42544 269.46104,222.97696 C 268.64265,221.95124 265.82693,224.97653 265.16714,223.87392 C 261.34787,217.49144 260.251,234.35166 257.11607,223.87392 C 257.03911,223.6167 252.99268,230.72251 251.7487,226.56479 C 251.58947,226.0326 247.73923,226.0569 247.4548,226.11631 z "
     id="path2286" /></svg>